<svg width="144" height="40" viewBox="0 0 144 40" fill="none" xmlns="http://www.w3.org/2000/svg">
<g clip-path="url(#clip0_65_25)">
<path d="M133.572 0H10.2516C9.88057 0 9.51401 0 9.1439 0.002C8.8341 0.004 8.52683 0.0098 8.21409 0.0147C7.54076 0.0312 6.85903 0.0723 6.18661 0.1914C5.50933 0.3086 4.87991 0.5088 4.26334 0.8184C3.6576 1.125 3.10426 1.5234 2.6256 1.9971C2.14147 2.4707 1.7403 3.0196 1.43353 3.6182C1.11887 4.2266 0.919253 4.8516 0.80118 5.5215C0.679161 6.1836 0.637172 6.8535 0.619871 7.5235C0.610462 7.8301 0.60945 8.1377 0.604492 8.4443C0.604492 8.8066 0.604492 9.1699 0.604492 9.5361V30.4648C0.604492 30.834 0.604492 31.1953 0.604492 31.5586C0.60945 31.8691 0.610462 32.1699 0.61977 32.4805C0.637071 33.1504 0.679059 33.8203 0.801078 34.4824C0.919152 35.1523 1.11877 35.7803 1.43343 36.3867C1.7402 36.9824 2.14137 37.5313 2.6255 38.001C3.10416 38.4785 3.6575 38.876 4.26324 39.1797C4.87981 39.4922 5.50923 39.6895 6.18651 39.8105C6.85893 39.9297 7.54066 39.9688 8.21399 39.9873C8.52672 39.9941 8.834 39.998 9.1438 39.998C9.5139 40 9.88057 40 10.2516 40H133.572C133.935 40 134.305 40 134.668 39.998C134.977 39.998 135.293 39.9941 135.601 39.9873C136.279 39.9688 136.959 39.9297 137.625 39.8105C138.302 39.6895 138.933 39.4922 139.555 39.1797C140.16 38.876 140.713 38.4785 141.191 38.001C141.674 37.5313 142.075 36.9824 142.387 36.3867C142.697 35.7803 142.899 35.1523 143.013 34.4824C143.138 33.8203 143.177 33.1504 143.201 32.4805C143.205 32.1699 143.205 31.8691 143.205 31.5586C143.213 31.1953 143.213 30.834 143.213 30.4648V9.5361C143.213 9.1699 143.213 8.8066 143.205 8.4443C143.205 8.1377 143.205 7.83 143.201 7.5234C143.177 6.8535 143.138 6.1836 143.013 5.5214C142.899 4.8515 142.697 4.2265 142.387 3.6181C142.075 3.0195 141.674 2.4706 141.191 1.997C140.713 1.5234 140.16 1.1249 139.555 0.8183C138.933 0.5087 138.302 0.3085 137.625 0.1913C136.959 0.0722 136.279 0.0311 135.601 0.0145C135.293 0.0096 134.977 0.0038 134.668 0.0018C134.305 0 133.935 0 133.572 0Z" fill="#A6A6A6"/>
<path d="M9.14879 39.125C8.8405 39.125 8.5396 39.1211 8.23385 39.1143C7.66817 39.0986 6.99727 39.0674 6.34265 38.9512C5.72507 38.8408 5.17619 38.6611 4.66636 38.4033C4.13872 38.1387 3.66441 37.7969 3.25292 37.3867C2.83395 36.9805 2.48964 36.5137 2.22041 35.9902C1.95806 35.4854 1.77878 34.9434 1.67102 34.333C1.54749 33.6602 1.51592 32.9775 1.50256 32.458C1.49619 32.2471 1.48779 31.5449 1.48779 31.5449V8.4443C1.48779 8.4443 1.4967 7.7529 1.50256 7.5498C1.51592 7.0259 1.54749 6.3438 1.67001 5.6777C1.77827 5.064 1.95756 4.5225 2.21991 4.0156C2.48863 3.4912 2.83354 3.022 3.24705 2.6177C3.66552 2.2036 4.14176 1.8609 4.66595 1.5952C5.1857 1.3345 5.73357 1.1562 6.33881 1.0513C7.02013 0.9307 7.71076 0.9004 8.23638 0.8872L9.1493 0.875H134.663L135.587 0.8877C136.106 0.9004 136.797 0.9307 137.467 1.0503C138.077 1.1558 138.629 1.335 139.158 1.5982C139.677 1.8609 140.152 2.2037 140.566 2.6138C140.98 3.02 141.327 3.4917 141.601 4.0181C141.862 4.5293 142.04 5.0708 142.143 5.667C142.261 6.2979 142.297 6.9458 142.319 7.5542C142.322 7.8374 142.322 8.1416 142.322 8.4443C142.33 8.8193 142.33 9.1762 142.33 9.5361V30.4648C142.33 30.8281 142.33 31.1826 142.322 31.54C142.322 31.8652 142.322 32.1631 142.318 32.4697C142.297 33.0586 142.261 33.7061 142.145 34.3232C142.04 34.9365 141.862 35.4785 141.599 35.9932C141.326 36.5127 140.979 36.9824 140.571 37.3789C140.153 37.7969 139.679 38.1377 139.155 38.4014C138.63 38.665 138.095 38.8398 137.467 38.9512C136.819 39.0674 136.148 39.0986 135.576 39.1143C135.28 39.1211 134.97 39.125 134.668 39.125L133.572 39.127L9.14879 39.125Z" fill="black"/>
<path d="M47.2567 27.8203H42.4676L41.3176 31.1767H39.2891L43.8252 18.7582H45.9327L50.4689 31.1767H48.4058L47.2567 27.8203ZM42.9636 26.2715H46.7597L44.8884 20.8242H44.836L42.9636 26.2715Z" fill="white"/>
<path d="M60.2654 26.6504C60.2654 29.5156 58.7417 31.332 56.4426 31.332C55.1285 31.332 54.0832 30.6943 53.5605 29.6875H53.517V34.1719H51.6367V22.123H53.4567V23.6806H53.4913C54.0308 22.6396 55.085 21.9765 56.408 21.9765C58.7328 21.9766 60.2654 23.7842 60.2654 26.6504ZM58.3327 26.6504C58.3327 24.7568 57.401 23.543 55.9119 23.543C54.4753 23.543 53.509 24.7823 53.509 26.6504C53.509 28.5352 54.4664 29.7568 55.9119 29.7568C57.401 29.7568 58.3327 28.5518 58.3327 26.6504Z" fill="white"/>
<path d="M70.3474 26.6504C70.3474 29.5156 68.8238 31.332 66.5246 31.332C65.2106 31.332 64.1652 30.6943 63.6425 29.6875H63.599V34.1719H61.7188V22.123H63.5387V23.6806H63.5733C64.1128 22.6396 65.1671 21.9765 66.49 21.9765C68.815 21.9766 70.3474 23.7842 70.3474 26.6504ZM68.4148 26.6504C68.4148 24.7568 67.4831 23.543 65.9941 23.543C64.5575 23.543 63.5911 24.7823 63.5911 26.6504C63.5911 28.5352 64.5486 29.7568 65.9941 29.7568C67.4831 29.7568 68.4148 28.5518 68.4148 26.6504Z" fill="white"/>
<path d="M71.8701 18.7583H73.7514V31.1768H71.8701V18.7583Z" fill="white"/>
<path d="M83.5409 28.5176C83.2791 30.1699 81.6953 31.3487 79.5967 31.3487C76.9062 31.3487 75.2778 29.5499 75.2778 26.6934C75.2778 23.8536 76.9319 21.96 79.5175 21.96C82.0608 21.96 83.6456 23.7325 83.6456 26.4776V27.1143H77.1759V27.2266C77.1759 28.8018 78.1333 29.8428 79.6401 29.8428C80.7111 29.8428 81.5035 29.3096 81.7555 28.5176H83.5409ZM77.1847 25.8154H81.7644C81.7209 24.4297 80.8326 23.457 79.5175 23.457C78.2035 23.457 77.2806 24.4473 77.1847 25.8154Z" fill="white"/>
<path d="M88.9492 31.1767V18.7582H93.9645C96.1936 18.7582 97.6569 19.9804 97.6569 21.8563C97.6569 23.1727 96.6727 24.3524 95.419 24.5584V24.6277C97.1253 24.8172 98.2745 26.0125 98.2745 27.6648C98.2745 29.8513 96.6639 31.1765 93.9913 31.1765H88.9492V31.1767ZM90.8996 24.0419H93.0852C94.7748 24.0419 95.7065 23.3534 95.7065 22.123C95.7065 20.9707 94.9052 20.333 93.4943 20.333H90.8996V24.0419ZM93.5901 29.6015C95.3488 29.6015 96.2806 28.8876 96.2806 27.5449C96.2806 26.2022 95.3231 25.5137 93.4775 25.5137H90.8996V29.6016H93.5901V29.6015Z" fill="white"/>
<path d="M99.5078 26.6504C99.5078 23.7412 101.24 21.96 103.852 21.96C106.465 21.96 108.198 23.7412 108.198 26.6504C108.198 29.5674 106.474 31.3486 103.852 31.3486C101.232 31.3486 99.5078 29.5674 99.5078 26.6504ZM106.282 26.6504C106.282 24.6445 105.324 23.4912 103.852 23.4912C102.381 23.4912 101.424 24.6445 101.424 26.6504C101.424 28.6641 102.381 29.8174 103.852 29.8174C105.332 29.8174 106.282 28.6641 106.282 26.6504Z" fill="white"/>
<path d="M109.518 26.6504C109.518 23.7412 111.25 21.96 113.862 21.96C116.475 21.96 118.208 23.7412 118.208 26.6504C118.208 29.5674 116.484 31.3486 113.862 31.3486C111.242 31.3486 109.518 29.5674 109.518 26.6504ZM116.293 26.6504C116.293 24.6445 115.334 23.4912 113.862 23.4912C112.391 23.4912 111.433 24.6445 111.433 26.6504C111.433 28.6641 112.391 29.8174 113.862 29.8174C115.343 29.8174 116.293 28.6641 116.293 26.6504Z" fill="white"/>
<path d="M125.338 22.123H127.549L123.753 26.0214L127.698 31.1767H125.512L122.404 27.1581L121.62 27.9237V31.1766H119.739V18.7583H121.62V26.0049H121.638L125.338 22.123Z" fill="white"/>
<path d="M131.752 21.96C133.885 21.96 135.271 23.1299 135.331 24.7998H133.563C133.46 23.9219 132.807 23.3711 131.752 23.3711C130.734 23.3711 130.055 23.8613 130.055 24.585C130.055 25.1524 130.473 25.5401 131.466 25.7637L132.955 26.0996C134.826 26.5293 135.541 27.2529 135.541 28.5605C135.541 30.2128 133.981 31.3486 131.822 31.3486C129.532 31.3486 128.157 30.2382 127.983 28.5175H129.845C130.02 29.4638 130.673 29.9286 131.822 29.9286C132.955 29.9286 133.65 29.4638 133.65 28.7235C133.65 28.1385 133.311 27.7948 132.31 27.5712L130.821 27.2265C129.08 26.831 128.218 26.0048 128.218 24.6874C128.218 23.0703 129.646 21.96 131.752 21.96Z" fill="white"/>
<path d="M42.7297 14.731C41.0184 14.731 39.939 13.5279 39.939 11.6011C39.939 9.69879 41.0313 8.47459 42.7213 8.47459C44.0937 8.47459 45.0892 9.24359 45.2942 10.4512H44.3531C44.1185 9.73199 43.5454 9.33889 42.7213 9.33889C41.6043 9.33889 40.8974 10.2115 40.8974 11.5928C40.8974 12.9986 41.6083 13.8667 42.7421 13.8667C43.7296 13.8667 44.4074 13.2715 44.4158 12.3867V12.2583H42.8591V11.481H45.3361V12.2251C45.3361 13.751 44.311 14.731 42.7297 14.731Z" fill="white"/>
<path d="M50.5026 13.3706C50.306 14.1728 49.5693 14.6733 48.5279 14.6733C47.2222 14.6733 46.4233 13.7885 46.4233 12.3491C46.4233 10.9101 47.239 9.9966 48.5235 9.9966C49.7911 9.9966 50.5569 10.8526 50.5569 12.2666V12.5767H47.3393V12.6265C47.3689 13.4161 47.8333 13.9165 48.5526 13.9165C49.0965 13.9165 49.4691 13.7222 49.6365 13.3706H50.5026ZM47.3393 11.9194H49.6405C49.6197 11.2124 49.1845 10.7529 48.5195 10.7529C47.8541 10.7529 47.3897 11.2163 47.3393 11.9194Z" fill="white"/>
<path d="M52.9832 8.9624V10.104H53.9703V10.8525H52.9832V13.1679C52.9832 13.6396 53.1798 13.8461 53.6274 13.8461C53.7652 13.8461 53.8448 13.8378 53.9703 13.8256V14.5658C53.8241 14.5902 53.6566 14.6112 53.4807 14.6112C52.4808 14.6112 52.0836 14.2635 52.0836 13.3954V10.8524H51.3599V10.104H52.0836V8.9624H52.9832Z" fill="white"/>
<path d="M57.5254 8.72269C57.5254 8.40039 57.7808 8.13969 58.0945 8.13969C58.4083 8.13969 58.6636 8.40039 58.6636 8.72269C58.6636 9.04109 58.4083 9.30179 58.0945 9.30179C57.7808 9.30179 57.5254 9.04099 57.5254 8.72269ZM57.6469 10.0835H58.5421V14.5864H57.6469V10.0835Z" fill="white"/>
<path d="M61.2108 8.9624V10.104H62.1979V10.8525H61.2108V13.1679C61.2108 13.6396 61.4074 13.8461 61.855 13.8461C61.9928 13.8461 62.0723 13.8378 62.1979 13.8256V14.5658C62.0517 14.5902 61.8841 14.6112 61.7083 14.6112C60.7083 14.6112 60.3111 14.2635 60.3111 13.3954V10.8524H59.5874V10.104H60.3111V8.9624H61.2108Z" fill="white"/>
<path d="M65.6313 12.333C65.6313 10.8813 66.4514 9.9966 67.7819 9.9966C69.1078 9.9966 69.9279 10.8814 69.9279 12.333C69.9279 13.7925 69.1122 14.6733 67.7819 14.6733C66.447 14.6733 65.6313 13.7925 65.6313 12.333ZM69.0036 12.333C69.0036 11.3569 68.5599 10.7861 67.7819 10.7861C66.9994 10.7861 66.5601 11.3569 66.5601 12.333C66.5601 13.3169 66.9994 13.8833 67.7819 13.8833C68.5599 13.8833 69.0036 13.313 69.0036 12.333Z" fill="white"/>
<path d="M71.1372 10.0835H72.0033V10.7988H72.0705C72.2918 10.2983 72.7438 9.9966 73.4301 9.9966C74.4468 9.9966 75.0075 10.6001 75.0075 11.6714V14.5864H74.1079V11.8945C74.1079 11.1709 73.7897 10.811 73.1247 10.811C72.4593 10.811 72.0369 11.2495 72.0369 11.9521V14.5864H71.1372V10.0835Z" fill="white"/>
<path d="M33.6688 15.2896C33.6688 14.9891 33.6689 14.6885 33.667 14.388C33.6655 14.1348 33.6625 13.8817 33.6556 13.6286C33.6405 13.0773 33.6076 12.5212 33.5086 11.9761C33.4079 11.4225 33.2437 10.9073 32.9846 10.4044C32.7301 9.9104 32.3978 9.4584 32.0012 9.0664C31.6045 8.6744 31.1471 8.3458 30.6472 8.0943C30.1386 7.8384 29.6176 7.6761 29.0578 7.5766C28.506 7.4786 27.9432 7.4461 27.3853 7.4312C27.1292 7.4244 26.8731 7.4214 26.6169 7.4199C26.3129 7.4181 26.0088 7.4182 25.7047 7.4182H16.1735C15.8695 7.4182 15.5653 7.4181 15.2613 7.4199C15.0051 7.4214 14.749 7.4244 14.4929 7.4312C13.935 7.4461 13.3721 7.4786 12.8204 7.5766C12.2606 7.676 11.7396 7.8384 11.231 8.0943C10.7311 8.3458 10.2737 8.6744 9.87707 9.0664C9.48056 9.4584 9.14809 9.9104 8.89363 10.4044C8.63462 10.9073 8.47031 11.4225 8.36964 11.9761C8.27058 12.5213 8.2377 13.0774 8.22263 13.6286C8.21575 13.8817 8.21281 14.1348 8.21119 14.388C8.20937 14.6885 8.20947 14.9891 8.20947 15.2896V24.71C8.20947 25.0105 8.20937 25.3111 8.21119 25.6116C8.21271 25.8648 8.21575 26.1179 8.22263 26.3709C8.2377 26.9222 8.27058 27.4783 8.36964 28.0234C8.47031 28.577 8.63452 29.0922 8.89363 29.5951C9.14809 30.0891 9.48045 30.5411 9.87707 30.9331C10.2737 31.3251 10.7311 31.6537 11.231 31.9052C11.7396 32.1611 12.2606 32.3234 12.8204 32.4229C13.3722 32.5209 13.9351 32.5534 14.4929 32.5683C14.749 32.5751 15.0051 32.5781 15.2613 32.5796C15.5653 32.5814 15.8695 32.5813 16.1735 32.5813H25.7047C26.0088 32.5813 26.3129 32.5814 26.6169 32.5796C26.8731 32.5781 27.1292 32.5751 27.3853 32.5683C27.9433 32.5534 28.5061 32.5209 29.0578 32.4229C29.6176 32.3235 30.1386 32.1611 30.6472 31.9052C31.1471 31.6537 31.6045 31.3251 32.0012 30.9331C32.3978 30.5411 32.7301 30.0891 32.9846 29.5951C33.2437 29.0922 33.4079 28.577 33.5086 28.0234C33.6076 27.4782 33.6405 26.9221 33.6556 26.3709C33.6625 26.1178 33.6655 25.8647 33.667 25.6116C33.6689 25.3111 33.6688 25.0105 33.6688 24.71V15.2896Z" fill="url(#paint0_linear_65_25)"/>
<path d="M19.9994 14.506C20.4176 15.1378 20.6739 15.3254 20.6739 17.1658C20.6739 19.4365 20.6739 25.0976 20.6739 27.3682C20.6739 27.7901 20.6735 26.3611 19.1941 25.2787C17.6785 24.1213 15.0857 24.044 12.9682 25.5627C12.5779 25.8481 12.2935 25.7955 12.2935 25.3736C12.2937 23.1029 12.2933 17.7428 12.2935 15.4721C12.2935 15.0502 12.3358 14.5905 12.9682 14.133C15.0854 12.6143 18.342 12.588 19.9994 14.506ZM29.5845 15.472C29.5845 15.0501 29.5422 14.5904 28.9099 14.1329C26.7925 12.6143 23.536 12.588 21.8785 14.506C21.4603 15.1378 21.204 15.3254 21.204 17.1658C21.204 19.4365 21.204 25.0976 21.204 27.3682C21.204 27.7901 21.2044 26.3611 22.6839 25.2787C24.1994 24.1213 26.7923 24.044 28.9098 25.5627C29.3 25.8481 29.5844 25.7955 29.5844 25.3736C29.5843 23.1028 29.5847 17.7427 29.5845 15.472Z" fill="white"/>
</g>
<defs>
<linearGradient id="paint0_linear_65_25" x1="20.9391" y1="7.4182" x2="20.9391" y2="32.5814" gradientUnits="userSpaceOnUse">
<stop stop-color="#FFA80B"/>
<stop offset="1" stop-color="#F27218"/>
</linearGradient>
<clipPath id="clip0_65_25">
<rect width="142.609" height="40" fill="white" transform="translate(0.604492)"/>
</clipPath>
</defs>
</svg>
