<svg width="143" height="40" viewBox="0 0 143 40" fill="none" xmlns="http://www.w3.org/2000/svg">
<path d="M0.888889 7.11111C0.888889 3.67467 3.67467 0.888889 7.11111 0.888889H135.493C138.93 0.888889 141.716 3.67467 141.716 7.11111V32.8889C141.716 36.3253 138.93 39.1111 135.493 39.1111H7.1111C3.67466 39.1111 0.888889 36.3253 0.888889 32.8889V7.11111Z" fill="black"/>
<path fill-rule="evenodd" clip-rule="evenodd" d="M7.11111 0H135.493C139.421 0 142.604 3.18376 142.604 7.11111V32.8889C142.604 36.8162 139.421 40 135.493 40H7.1111C3.18374 40 0 36.8162 0 32.8889V7.11111C0 3.18375 3.18375 0 7.11111 0ZM7.11111 0.888889C3.67467 0.888889 0.888889 3.67467 0.888889 7.11111V32.8889C0.888889 36.3253 3.67466 39.1111 7.1111 39.1111H135.493C138.93 39.1111 141.716 36.3253 141.716 32.8889V7.11111C141.716 3.67467 138.93 0.888889 135.493 0.888889H7.11111Z" fill="#A6A6A6"/>
<path d="M28.2432 31.8254L27.1522 28.6411H22.606L21.5067 31.8254H19.6056L23.912 19.828H25.904L30.2105 31.8254H28.2432ZM24.813 22.0063L23.0772 27.078H26.681L24.9535 22.0063H24.813Z" fill="white"/>
<path d="M32.0868 31.8254V22.7712H33.7978V24.2262H33.93C34.1284 23.7107 34.4453 23.3117 34.8806 23.029C35.3214 22.7407 35.8394 22.5966 36.4346 22.5966C37.0352 22.5966 37.5477 22.7407 37.972 23.029C38.3963 23.3172 38.7104 23.7163 38.9143 24.2262H39.0548C39.2862 23.7274 39.6444 23.3311 40.1293 23.0373C40.6198 22.7435 41.1736 22.5966 41.7907 22.5966C42.7 22.5966 43.4053 22.8599 43.9068 23.3865C44.4137 23.913 44.6672 24.6475 44.6672 25.5897V31.8254H42.8901V26.0553C42.8901 24.8415 42.3087 24.2345 41.146 24.2345C40.5784 24.2345 40.1183 24.4147 39.7656 24.775C39.4185 25.1352 39.2449 25.587 39.2449 26.1302V31.8254H37.5008V25.8807C37.5008 25.3708 37.3438 24.969 37.0297 24.6752C36.7156 24.3814 36.294 24.2345 35.765 24.2345C35.225 24.2345 34.7731 24.4313 34.4095 24.8248C34.0458 25.2184 33.8639 25.7061 33.8639 26.2881V31.8254H32.0868Z" fill="white"/>
<path d="M50.106 30.4702C50.7728 30.4702 51.3266 30.2817 51.7674 29.9048C52.2138 29.5279 52.437 29.0568 52.437 28.4914V27.7348L50.2383 27.8762C49.6211 27.915 49.1665 28.0424 48.8744 28.2586C48.5824 28.4748 48.4364 28.7824 48.4364 29.1815C48.4364 29.5806 48.5907 29.8965 48.8992 30.1293C49.2078 30.3566 49.6101 30.4702 50.106 30.4702ZM49.6514 31.9751C48.7698 31.9751 48.0479 31.7284 47.4858 31.2351C46.9293 30.7362 46.651 30.0794 46.651 29.2646C46.651 28.4554 46.9403 27.8207 47.5189 27.3607C48.0975 26.8951 48.924 26.629 49.9986 26.5625L52.437 26.4212V25.6396C52.437 25.1574 52.2799 24.7888 51.9658 24.5338C51.6517 24.2733 51.1944 24.1431 50.5937 24.1431C50.0978 24.1431 49.6845 24.2318 49.3539 24.4091C49.0287 24.581 48.8166 24.8276 48.7174 25.1491H46.9981C47.0863 24.3731 47.4638 23.7551 48.1305 23.295C48.8028 22.8294 49.6514 22.5966 50.6764 22.5966C51.8005 22.5966 52.6684 22.8655 53.2801 23.4031C53.8972 23.9352 54.2058 24.6807 54.2058 25.6396V31.8254H52.4948V30.5533H52.3543C52.0843 31.0078 51.7123 31.3598 51.2384 31.6092C50.7701 31.8531 50.241 31.9751 49.6514 31.9751Z" fill="white"/>
<path d="M56.5285 31.8254V30.6115L61.4797 24.4258V24.2844H56.5616V22.7712H63.604V24.0766L58.7602 30.1709V30.3122H63.6535V31.8254H56.5285Z" fill="white"/>
<path d="M69.5966 32C68.2741 32 67.2354 31.5815 66.4804 30.7446C65.7255 29.9076 65.348 28.7575 65.348 27.2942C65.348 25.8364 65.7255 24.689 66.4804 23.8521C67.2409 23.0151 68.2796 22.5966 69.5966 22.5966C70.9081 22.5966 71.9413 23.0151 72.6962 23.8521C73.4567 24.689 73.8369 25.8364 73.8369 27.2942C73.8369 28.7575 73.4594 29.9076 72.7045 30.7446C71.9496 31.5815 70.9136 32 69.5966 32ZM69.5966 30.412C70.3625 30.412 70.9549 30.1404 71.3737 29.5972C71.798 29.0485 72.0102 28.2808 72.0102 27.2942C72.0102 26.3131 71.798 25.5509 71.3737 25.0078C70.9549 24.459 70.3625 24.1846 69.5966 24.1846C68.8251 24.1846 68.23 24.4562 67.8112 24.9994C67.3924 25.5426 67.183 26.3075 67.183 27.2942C67.183 28.2863 67.3924 29.054 67.8112 29.5972C68.23 30.1404 68.8251 30.412 69.5966 30.412Z" fill="white"/>
<path d="M75.9777 31.8254V22.7712H77.6887V24.2096H77.821C78.2894 23.1343 79.1848 22.5966 80.5073 22.5966C81.5102 22.5966 82.279 22.8876 82.8135 23.4696C83.3535 24.0516 83.6235 24.883 83.6235 25.9639V31.8254H81.8464V26.4129C81.8464 24.9606 81.1989 24.2345 79.9039 24.2345C79.2482 24.2345 78.7247 24.4424 78.3335 24.8581C77.9477 25.2683 77.7549 25.8253 77.7549 26.5292V31.8254H75.9777Z" fill="white"/>
<path d="M88.3763 31.6092C88.1449 31.8476 87.8556 31.9667 87.5084 31.9667C87.1612 31.9667 86.8719 31.8476 86.6405 31.6092C86.4091 31.3709 86.2933 31.0771 86.2933 30.7279C86.2933 30.3787 86.4091 30.085 86.6405 29.8466C86.8719 29.6083 87.1612 29.4891 87.5084 29.4891C87.8556 29.4891 88.1449 29.6083 88.3763 29.8466C88.6077 30.085 88.7235 30.3787 88.7235 30.7279C88.7235 31.0771 88.6077 31.3709 88.3763 31.6092Z" fill="white"/>
<path d="M98.758 25.7311H97.0305C96.9203 25.271 96.6806 24.8997 96.3114 24.617C95.9477 24.3343 95.4793 24.193 94.9062 24.193C94.1623 24.193 93.5754 24.4646 93.1456 25.0078C92.7213 25.5509 92.5092 26.3048 92.5092 27.2692C92.5092 28.2447 92.7213 29.0124 93.1456 29.5722C93.5754 30.1265 94.1623 30.4037 94.9062 30.4037C95.4738 30.4037 95.9394 30.2762 96.3031 30.0212C96.6723 29.7662 96.9148 29.3976 97.0305 28.9154H98.758C98.6423 29.8466 98.2456 30.5949 97.5678 31.1603C96.89 31.7201 96.0055 32 94.9145 32C93.603 32 92.5698 31.5815 91.8148 30.7446C91.0654 29.902 90.6907 28.7436 90.6907 27.2692C90.6907 25.817 91.0654 24.6752 91.8148 23.8438C92.5643 23.0123 93.5947 22.5966 94.9062 22.5966C96.0028 22.5966 96.8872 22.8849 97.5595 23.4613C98.2373 24.0378 98.6368 24.7944 98.758 25.7311Z" fill="white"/>
<path d="M104.594 32C103.271 32 102.232 31.5815 101.477 30.7446C100.723 29.9076 100.345 28.7575 100.345 27.2942C100.345 25.8364 100.723 24.689 101.477 23.8521C102.238 23.0151 103.277 22.5966 104.594 22.5966C105.905 22.5966 106.938 23.0151 107.693 23.8521C108.454 24.689 108.834 25.8364 108.834 27.2942C108.834 28.7575 108.456 29.9076 107.702 30.7446C106.947 31.5815 105.911 32 104.594 32ZM104.594 30.412C105.36 30.412 105.952 30.1404 106.371 29.5972C106.795 29.0485 107.007 28.2808 107.007 27.2942C107.007 26.3131 106.795 25.5509 106.371 25.0078C105.952 24.459 105.36 24.1846 104.594 24.1846C103.822 24.1846 103.227 24.4562 102.808 24.9994C102.389 25.5426 102.18 26.3075 102.18 27.2942C102.18 28.2863 102.389 29.054 102.808 29.5972C103.227 30.1404 103.822 30.412 104.594 30.412Z" fill="white"/>
<path d="M110.975 31.8254V22.7712H112.686V24.2262H112.818C113.016 23.7107 113.333 23.3117 113.769 23.029C114.209 22.7407 114.727 22.5966 115.323 22.5966C115.923 22.5966 116.436 22.7407 116.86 23.029C117.284 23.3172 117.598 23.7163 117.802 24.2262H117.943C118.174 23.7274 118.532 23.3311 119.017 23.0373C119.508 22.7435 120.062 22.5966 120.679 22.5966C121.588 22.5966 122.293 22.8599 122.795 23.3865C123.302 23.913 123.555 24.6475 123.555 25.5897V31.8254H121.778V26.0553C121.778 24.8415 121.197 24.2345 120.034 24.2345C119.466 24.2345 119.006 24.4147 118.654 24.775C118.306 25.1352 118.133 25.587 118.133 26.1302V31.8254H116.389V25.8807C116.389 25.3708 116.232 24.969 115.918 24.6752C115.604 24.3814 115.182 24.2345 114.653 24.2345C114.113 24.2345 113.661 24.4313 113.297 24.8248C112.934 25.2184 112.752 25.7061 112.752 26.2881V31.8254H110.975Z" fill="white"/>
<path d="M25.1404 13.122C25.1404 13.9262 24.8951 14.5679 24.4044 15.0469C23.9166 15.5231 23.2628 15.7612 22.4431 15.7612C21.5569 15.7612 20.8541 15.465 20.3345 14.8727C19.815 14.2804 19.5552 13.4777 19.5552 12.4644C19.5552 11.4627 19.8164 10.6643 20.3388 10.0691C20.8613 9.47101 21.5598 9.17196 22.4344 9.17196C23.1445 9.17196 23.7391 9.36068 24.2182 9.73812C24.6974 10.1127 24.9903 10.6178 25.0971 11.2537H24.123C24.0017 10.8733 23.7968 10.583 23.5082 10.3827C23.2195 10.1823 22.8616 10.0822 22.4344 10.0822C21.8571 10.0822 21.3982 10.297 21.0576 10.7267C20.717 11.1535 20.5467 11.7298 20.5467 12.4557C20.5467 13.196 20.717 13.7811 21.0576 14.2108C21.4011 14.6376 21.8672 14.851 22.456 14.851C22.9669 14.851 23.3826 14.7072 23.703 14.4198C24.0234 14.1324 24.185 13.7564 24.1879 13.2919V13.1568H22.5773V12.3381H25.1404V13.122Z" fill="white"/>
<path d="M29.1324 11.9069C28.9246 11.6834 28.6489 11.5716 28.3054 11.5716C27.9619 11.5716 27.6791 11.6834 27.4568 11.9069C27.2345 12.1305 27.1104 12.4281 27.0845 12.7997H29.4658C29.4542 12.4252 29.3431 12.1276 29.1324 11.9069ZM29.4614 14.3284H30.3577C30.2509 14.7551 30.0171 15.0905 29.6563 15.3344C29.2984 15.5783 28.851 15.7002 28.3141 15.7002C27.6386 15.7002 27.1061 15.4824 26.7164 15.0469C26.3296 14.6085 26.1363 14.0104 26.1363 13.2527C26.1363 12.4949 26.3325 11.8924 26.7251 11.4453C27.1176 10.9982 27.6459 10.7746 28.3097 10.7746C28.965 10.7746 29.4788 10.9866 29.8511 11.4105C30.2263 11.8344 30.414 12.4194 30.414 13.1656V13.4922H27.0845V13.5444C27.0989 13.9625 27.2187 14.2935 27.4438 14.5374C27.669 14.7813 27.9677 14.9032 28.3401 14.9032C28.9087 14.9032 29.2825 14.7116 29.4614 14.3284Z" fill="white"/>
<path d="M31.8601 9.68586H32.7909V10.8879H33.8127V11.6761H32.7909V14.115C32.7909 14.3617 32.8443 14.5432 32.9511 14.6593C33.0579 14.7726 33.2268 14.8292 33.4577 14.8292C33.5501 14.8292 33.6684 14.8219 33.8127 14.8074V15.587C33.628 15.6189 33.4592 15.6349 33.3062 15.6349C32.7895 15.6349 32.4186 15.5362 32.1935 15.3387C31.9712 15.1413 31.8601 14.8132 31.8601 14.3545V11.6761H31.111V10.8879H31.8601V9.68586Z" fill="white"/>
<path d="M37.3501 15.6087V10.8661H38.2766V15.6087H37.3501ZM38.242 9.87313C38.1294 9.98055 37.9865 10.0343 37.8134 10.0343C37.6402 10.0343 37.4958 9.98055 37.3804 9.87313C37.2678 9.7628 37.2115 9.62634 37.2115 9.46375C37.2115 9.30116 37.2678 9.16471 37.3804 9.05438C37.4958 8.94405 37.6402 8.88889 37.8134 8.88889C37.9865 8.88889 38.1294 8.94405 38.242 9.05438C38.3574 9.16471 38.4152 9.30116 38.4152 9.46375C38.4152 9.62634 38.3574 9.7628 38.242 9.87313Z" fill="white"/>
<path d="M39.9739 9.68586H40.9047V10.8879H41.9265V11.6761H40.9047V14.115C40.9047 14.3617 40.9581 14.5432 41.0649 14.6593C41.1717 14.7726 41.3406 14.8292 41.5715 14.8292C41.6639 14.8292 41.7822 14.8219 41.9265 14.8074V15.587C41.7418 15.6189 41.5729 15.6349 41.42 15.6349C40.9033 15.6349 40.5324 15.5362 40.3072 15.3387C40.085 15.1413 39.9739 14.8132 39.9739 14.3545V11.6761H39.2248V10.8879H39.9739V9.68586Z" fill="white"/>
<path d="M47.4382 15.7002C46.7454 15.7002 46.2013 15.481 45.8059 15.0426C45.4105 14.6042 45.2127 14.0017 45.2127 13.2352C45.2127 12.4716 45.4105 11.8706 45.8059 11.4322C46.2042 10.9938 46.7483 10.7746 47.4382 10.7746C48.1252 10.7746 48.6664 10.9938 49.0618 11.4322C49.4601 11.8706 49.6593 12.4716 49.6593 13.2352C49.6593 14.0017 49.4616 14.6042 49.0661 15.0426C48.6707 15.481 48.128 15.7002 47.4382 15.7002ZM47.4382 14.8684C47.8394 14.8684 48.1497 14.7261 48.3691 14.4416C48.5913 14.1542 48.7024 13.752 48.7024 13.2352C48.7024 12.7213 48.5913 12.3221 48.3691 12.0376C48.1497 11.7502 47.8394 11.6064 47.4382 11.6064C47.0341 11.6064 46.7223 11.7487 46.503 12.0332C46.2836 12.3178 46.1739 12.7184 46.1739 13.2352C46.1739 13.7549 46.2836 14.1571 46.503 14.4416C46.7223 14.7261 47.0341 14.8684 47.4382 14.8684Z" fill="white"/>
<path d="M50.7807 15.6087V10.8661H51.6769V11.6195H51.7462C51.9915 11.0563 52.4606 10.7746 53.1533 10.7746C53.6787 10.7746 54.0813 10.9271 54.3613 11.2319C54.6442 11.5368 54.7856 11.9723 54.7856 12.5384V15.6087H53.8547V12.7736C53.8547 12.0129 53.5156 11.6326 52.8373 11.6326C52.4938 11.6326 52.2196 11.7414 52.0146 11.9592C51.8126 12.1741 51.7116 12.4658 51.7116 12.8346V15.6087H50.7807Z" fill="white"/>
</svg>
