<svg width="28" height="28" viewBox="0 0 28 28" fill="none" xmlns="http://www.w3.org/2000/svg">
<path d="M14 17.5C15.933 17.5 17.5 15.933 17.5 14C17.5 12.067 15.933 10.5 14 10.5C12.067 10.5 10.5 12.067 10.5 14C10.5 15.933 12.067 17.5 14 17.5Z" stroke="#0A9396" stroke-width="2" stroke-linecap="round" stroke-linejoin="round"/>
<path d="M22.6332 17.5C22.4779 17.8519 22.4315 18.2422 22.5002 18.6207C22.5688 18.9991 22.7492 19.3484 23.0182 19.6233L23.0882 19.6933C23.3051 19.91 23.4772 20.1674 23.5946 20.4506C23.7121 20.7339 23.7725 21.0375 23.7725 21.3442C23.7725 21.6508 23.7121 21.9544 23.5946 22.2377C23.4772 22.5209 23.3051 22.7783 23.0882 22.995C22.8715 23.2119 22.6141 23.384 22.3309 23.5015C22.0476 23.6189 21.744 23.6793 21.4373 23.6793C21.1307 23.6793 20.8271 23.6189 20.5438 23.5015C20.2605 23.384 20.0032 23.2119 19.7865 22.995L19.7165 22.925C19.4415 22.656 19.0923 22.4756 18.7139 22.407C18.3354 22.3384 17.9451 22.3847 17.5932 22.54C17.2481 22.6879 16.9538 22.9334 16.7465 23.2464C16.5392 23.5595 16.428 23.9262 16.4265 24.3017V24.5C16.4265 25.1188 16.1807 25.7123 15.7431 26.1499C15.3055 26.5875 14.712 26.8333 14.0932 26.8333C13.4743 26.8333 12.8808 26.5875 12.4433 26.1499C12.0057 25.7123 11.7598 25.1188 11.7598 24.5V24.395C11.7508 24.0088 11.6258 23.6343 11.4011 23.3201C11.1764 23.006 10.8624 22.7667 10.4998 22.6333C10.148 22.478 9.75761 22.4317 9.37915 22.5003C9.00069 22.5689 8.65146 22.7494 8.3765 23.0183L8.3065 23.0883C8.0898 23.3053 7.83246 23.4774 7.5492 23.5948C7.26594 23.7122 6.96231 23.7727 6.65567 23.7727C6.34903 23.7727 6.04541 23.7122 5.76214 23.5948C5.47888 23.4774 5.22154 23.3053 5.00484 23.0883C4.78789 22.8716 4.61579 22.6143 4.49836 22.331C4.38094 22.0478 4.3205 21.7441 4.3205 21.4375C4.3205 21.1309 4.38094 20.8272 4.49836 20.544C4.61579 20.2607 4.78789 20.0034 5.00484 19.7867L5.07484 19.7167C5.3438 19.4417 5.52422 19.0925 5.59284 18.714C5.66146 18.3355 5.61514 17.9452 5.45984 17.5933C5.31195 17.2483 5.06639 16.954 4.75338 16.7467C4.44038 16.5394 4.07359 16.4282 3.69817 16.4267H3.49984C2.881 16.4267 2.28751 16.1808 1.84992 15.7432C1.41234 15.3057 1.1665 14.7122 1.1665 14.0933C1.1665 13.4745 1.41234 12.881 1.84992 12.4434C2.28751 12.0058 2.881 11.76 3.49984 11.76H3.60484C3.991 11.751 4.36551 11.626 4.67969 11.4013C4.99386 11.1765 5.23317 10.8625 5.3665 10.5C5.52181 10.1481 5.56813 9.75776 5.49951 9.3793C5.43089 9.00084 5.25046 8.65162 4.9815 8.37666L4.9115 8.30666C4.69456 8.08995 4.52245 7.83261 4.40503 7.54935C4.28761 7.26609 4.22717 6.96246 4.22717 6.65582C4.22717 6.34919 4.28761 6.04556 4.40503 5.7623C4.52245 5.47903 4.69456 5.22169 4.9115 5.00499C5.12821 4.78804 5.38555 4.61594 5.66881 4.49852C5.95207 4.38109 6.2557 4.32065 6.56234 4.32065C6.86897 4.32065 7.1726 4.38109 7.45587 4.49852C7.73913 4.61594 7.99647 4.78804 8.21317 5.00499L8.28317 5.07499C8.55813 5.34395 8.90736 5.52437 9.28582 5.593C9.66428 5.66162 10.0546 5.61529 10.4065 5.45999H10.4998C10.8449 5.3121 11.1392 5.06654 11.3465 4.75353C11.5538 4.44053 11.665 4.07374 11.6665 3.69832V3.49999C11.6665 2.88115 11.9123 2.28766 12.3499 1.85007C12.7875 1.41249 13.381 1.16666 13.9998 1.16666C14.6187 1.16666 15.2122 1.41249 15.6498 1.85007C16.0873 2.28766 16.3332 2.88115 16.3332 3.49999V3.60499C16.3347 3.98041 16.4459 4.34719 16.6532 4.6602C16.8605 4.97321 17.1548 5.21877 17.4998 5.36666C17.8517 5.52196 18.2421 5.56828 18.6205 5.49966C18.999 5.43104 19.3482 5.25062 19.6232 4.98166L19.6932 4.91166C19.9099 4.69471 20.1672 4.52261 20.4505 4.40518C20.7337 4.28776 21.0374 4.22732 21.344 4.22732C21.6506 4.22732 21.9543 4.28776 22.2375 4.40518C22.5208 4.52261 22.7781 4.69471 22.9948 4.91166C23.2118 5.12836 23.3839 5.3857 23.5013 5.66896C23.6187 5.95222 23.6792 6.25585 23.6792 6.56249C23.6792 6.86913 23.6187 7.17276 23.5013 7.45602C23.3839 7.73928 23.2118 7.99662 22.9948 8.21332L22.9248 8.28332C22.6559 8.55828 22.4755 8.90751 22.4068 9.28597C22.3382 9.66443 22.3845 10.0548 22.5398 10.4067V10.5C22.6877 10.8451 22.9333 11.1393 23.2463 11.3466C23.5593 11.5539 23.9261 11.6652 24.3015 11.6667H24.4998C25.1187 11.6667 25.7122 11.9125 26.1498 12.3501C26.5873 12.7877 26.8332 13.3812 26.8332 14C26.8332 14.6188 26.5873 15.2123 26.1498 15.6499C25.7122 16.0875 25.1187 16.3333 24.4998 16.3333H24.3948C24.0194 16.3348 23.6526 16.4461 23.3396 16.6533C23.0266 16.8606 22.7811 17.1549 22.6332 17.5V17.5Z" stroke="#0A9396" stroke-width="2" stroke-linecap="round" stroke-linejoin="round"/>
</svg>
